<?xml version="1.0" encoding="UTF-8" standalone="no"?>
<!-- Created with Inkscape (http://www.inkscape.org/) -->

<svg
   version="1.1"
   id="svg2"
   width="307.94666"
   height="75.599998"
   viewBox="0 0 307.94666 75.599998"
   sodipodi:docname="RS1413_Nexperia_Logo_Color.eps"
   xmlns:inkscape="http://www.inkscape.org/namespaces/inkscape"
   xmlns:sodipodi="http://sodipodi.sourceforge.net/DTD/sodipodi-0.dtd"
   xmlns="http://www.w3.org/2000/svg"
   xmlns:svg="http://www.w3.org/2000/svg">
  <defs
     id="defs6" />
  <sodipodi:namedview
     id="namedview4"
     pagecolor="#ffffff"
     bordercolor="#ffffff"
     borderopacity="0.25"
     inkscape:showpageshadow="2"
     inkscape:pageopacity="0.0"
     inkscape:pagecheckerboard="0"
     inkscape:deskcolor="#d1d1d1" />
  <g
     id="g8"
     inkscape:groupmode="layer"
     inkscape:label="ink_ext_XXXXXX"
     transform="matrix(1.3333333,0,0,-1.3333333,0,75.6)">
    <g
       id="g10"
       transform="scale(0.1)">
      <path
         d="m 219.758,152.867 v -0.004 h 46.898 v 222.25 c 0,50.867 -40.777,91.668 -91.605,91.668 H 40.7891 C 18.2031,466.781 0,448.582 0,425.98 V 152.863 h 46.8633 c 4.2578,0 7.7109,3.453 7.7187,7.711 l 0.0118,254.727 H 175.051 c 20.707,0 37.019,-16.953 37.019,-37.047 l -0.004,-217.668 c 0,-4.254 3.442,-7.699 7.692,-7.719"
         style="fill:#ffffff;fill-opacity:1;fill-rule:nonzero;stroke:none"
         id="path12" />
      <path
         d="m 1226.8,241.375 c 0,-20.094 -16.31,-37.051 -37.02,-37.051 h -120.46 l 0.01,210.969 h 120.45 c 20.71,0 37.02,-16.957 37.02,-37.051 z m -37.02,225.398 -154.96,0.008 c -11.29,0 -20.07,-8.793 -20.07,-19.449 L 1014.73,0 h 46.87 c 4.26,0 7.71,3.45313 7.71,7.71094 l 0.01,145.13306 h 120.46 c 50.83,0 91.61,40.804 91.61,91.668 v 130.593 c 0,50.864 -40.78,91.668 -91.61,91.668"
         style="fill:#ffffff;fill-opacity:1;fill-rule:nonzero;stroke:none"
         id="path14" />
      <path
         d="m 1792.11,415.301 c -20.71,0 -37.03,-16.953 -37.03,-37.047 l 0.01,-217.668 c 0,-4.254 -3.44,-7.699 -7.69,-7.719 v -0.004 h -46.9 v 222.25 c 0,50.867 40.78,91.668 91.61,91.668 h 62.82 v -43.758 c 0,-4.253 -3.44,-7.699 -7.69,-7.718 l -55.13,-0.004"
         style="fill:#ffffff;fill-opacity:1;fill-rule:nonzero;stroke:none"
         id="path16" />
      <path
         d="m 1984.01,459.051 c 0,4.254 -3.44,7.703 -7.69,7.719 v 0.003 h -46.89 V 160.598 c 0,-4.254 3.44,-7.703 7.69,-7.723 v -0.004 h 46.89 v 306.18"
         style="fill:#ffffff;fill-opacity:1;fill-rule:nonzero;stroke:none"
         id="path18" />
      <path
         d="m 2142.74,204.355 c -20.71,0 -37.02,16.958 -37.02,37.051 v 25.778 c 0,20.093 16.31,37.05 37.02,37.05 h 112.3 l -0.01,-99.879 z m 75.28,262.43 0.01,-0.015 h -132.18 v -44.547 c 0,-3.77 3.13,-6.907 6.9,-6.907 l 125.27,-0.011 c 20.71,0 37.03,-16.953 37.03,-37.047 v -22.543 h -112.31 c -50.83,0 -91.61,-40.805 -91.61,-91.668 v -19.504 c 0,-50.863 40.78,-91.668 91.61,-91.668 l 146.79,-0.008 c 11.3,0 20.08,8.793 20.08,19.449 l 0.02,202.801 c 0,50.863 -40.78,91.668 -91.61,91.668"
         style="fill:#ffffff;fill-opacity:1;fill-rule:nonzero;stroke:none"
         id="path20" />
      <path
         d="m 1984.02,539.684 c 0,-15.079 -12.22,-27.297 -27.29,-27.297 -15.08,0 -27.3,12.218 -27.3,27.297 0,15.074 12.22,27.296 27.3,27.296 15.07,0 27.29,-12.222 27.29,-27.296"
         style="fill:#ffffff;fill-opacity:1;fill-rule:nonzero;stroke:none"
         id="path22" />
      <path
         d="m 434.59,152.863 h 161.871 v 44.547 c 0,3.766 -3.137,6.903 -6.902,6.903 l -154.957,0.015 c -20.711,0 -37.024,16.953 -37.024,37.047 l 0.004,44.684 195.742,0.007 c 15.055,0 16.313,8.793 16.313,19.45 v 69.589 c 0,50.864 -40.778,91.668 -91.606,91.668 h -83.429 c -50.832,0 -91.61,-40.804 -91.61,-91.668 l -0.004,-16.796 V 257.094 l 0.004,-12.578 c 0,-50.868 40.778,-91.672 91.61,-91.672 M 555.055,337.551 H 397.59 l -0.012,40.691 c 0,20.094 16.313,37.051 37.024,37.051 h 83.429 c 20.711,0 37.024,-16.957 37.024,-37.051 v -40.691"
         style="fill:#ffffff;fill-opacity:1;fill-rule:nonzero;stroke:none"
         id="path24" />
      <path
         d="m 1449.41,152.863 h 161.87 v 44.547 c 0,3.766 -3.13,6.903 -6.9,6.903 l -154.96,0.015 c -20.71,0 -37.02,16.953 -37.02,37.047 v 44.684 l 195.75,0.007 c 15.05,0 16.31,8.793 16.31,19.45 v 69.589 c 0,50.864 -40.78,91.668 -91.61,91.668 h -83.43 c -50.83,0 -91.61,-40.804 -91.61,-91.668 V 358.309 257.094 244.516 c 0,-50.868 40.78,-91.672 91.61,-91.672 m 120.46,184.707 h -157.47 l -0.01,40.691 c 0,20.094 16.31,37.051 37.02,37.051 h 83.43 c 20.71,0 37.03,-16.957 37.03,-37.051 v -40.691"
         style="fill:#ffffff;fill-opacity:1;fill-rule:nonzero;stroke:none"
         id="path26" />
      <path
         d="m 798.043,328.898 c -3.941,7.739 -61.121,119.985 -63.914,125.442 -2.996,5.851 -5.156,12.441 -16.984,12.441 -11.489,0 -39.813,0 -43.012,0 -3.926,0 -8.672,-2.511 -5.766,-8.558 0.461,-0.965 75.52,-148.395 75.52,-148.395 0,0 -75.059,-147.433 -75.52,-148.398 -2.906,-6.047 1.84,-8.559 5.766,-8.559 3.199,0 31.523,0 43.012,0 11.828,0 13.988,6.594 16.984,12.445 2.793,5.457 59.973,117.704 63.914,125.438 1.73,3.398 6.035,11.934 6.035,19.074 0,7.141 -4.305,15.676 -6.035,19.07"
         style="fill:#ffffff;fill-opacity:1;fill-rule:nonzero;stroke:none"
         id="path28" />
      <path
         d="m 880.605,309.828 c 0,0 75.055,147.43 75.516,148.395 2.91,6.047 -1.84,8.558 -5.762,8.558 -3.199,0 -31.523,0 -43.015,0 -11.824,0 -13.985,-6.59 -16.981,-12.441 -2.793,-5.457 -59.972,-117.703 -63.918,-125.442 -1.726,-3.394 -6.035,-11.929 -6.035,-19.07 0,-7.14 4.309,-15.676 6.035,-19.074 3.946,-7.734 61.125,-119.981 63.918,-125.438 2.996,-5.851 5.157,-12.445 16.981,-12.445 11.492,0 39.816,0 43.015,0 3.922,0 8.672,2.512 5.762,8.559 -0.461,0.965 -75.516,148.398 -75.516,148.398"
         style="fill:#ffffff;fill-opacity:1;fill-rule:nonzero;stroke:none"
         id="path30" />
    </g>
  </g>
</svg>
